<?xml version="1.0" standalone="no"?>
<!DOCTYPE svg PUBLIC "-//W3C//DTD SVG 20010904//EN"
 "http://www.w3.org/TR/2001/REC-SVG-20010904/DTD/svg10.dtd">
<svg version="1.0" xmlns="http://www.w3.org/2000/svg"
 width="24.000000pt" height="24.000000pt" viewBox="0 0 24.000000 24.000000"
 preserveAspectRatio="xMidYMid meet">

<g transform="translate(0.000000,24.000000) scale(0.100000,-0.100000)"
fill="#000000" stroke="none">
<path d="M4 227 c-2 -7 -3 -60 -2 -118 l3 -104 115 0 115 0 0 115 0 115 -113
3 c-87 2 -114 0 -118 -11z m137 -7 c26 -15 26 -66 -1 -80 -46 -25 -89 45 -46
75 24 18 22 18 47 5z m-21 -150 c6 0 31 19 55 41 52 48 61 33 11 -17 -31 -31
-34 -56 -4 -38 7 4 8 3 4 -4 -4 -7 -1 -12 8 -12 8 0 17 6 19 13 4 7 6 6 6 -4
1 -22 -53 -33 -79 -16 -15 9 -25 9 -38 1 -25 -16 -82 -6 -81 15 0 10 2 11 6 4
2 -7 11 -13 19 -13 9 0 12 5 8 12 -4 7 -3 8 4 4 30 -18 27 7 -4 38 -50 50 -41
65 11 17 24 -22 49 -41 55 -41z m13 43 c-7 -2 -19 -2 -25 0 -7 3 -2 5 12 5 14
0 19 -2 13 -5z"/>
<path d="M90 170 c0 -5 5 -10 10 -10 6 0 10 5 10 10 0 6 -4 10 -10 10 -5 0
-10 -4 -10 -10z"/>
<path d="M122 160 c-7 -11 -10 -20 -6 -20 7 0 34 27 34 34 0 13 -16 5 -28 -14z"/>
</g>
</svg>
